<?xml version="1.0" encoding="utf-8"?>
<!-- Generator: Adobe Illustrator 24.1.1, SVG Export Plug-In . SVG Version: 6.00 Build 0)  -->
<svg version="1.1" id="Capa_1" xmlns="http://www.w3.org/2000/svg" xmlns:xlink="http://www.w3.org/1999/xlink" x="0px" y="0px"
	 viewBox="0 0 512 512" style="enable-background:new 0 0 512 512;" xml:space="preserve">
<style type="text/css">
	.st0{fill:#FFFFFF;stroke:#000000;stroke-miterlimit:10;}
</style>
<g>
	<g>
		<path class="st0" d="M242.4,466.3h-40.2c-4.1,0-7.5,3.4-7.5,7.5s3.4,7.5,7.5,7.5h40.2c4.1,0,7.5-3.4,7.5-7.5
			S246.5,466.3,242.4,466.3z"/>
		<path class="st0" d="M265.6,136.1c0-4.1-3.4-7.5-7.5-7.5h-71.8c-4.1,0-7.5,3.4-7.5,7.5s3.4,7.5,7.5,7.5h71.8
			C262.3,143.6,265.6,140.2,265.6,136.1z"/>
		<path class="st0" d="M33.5,225c4.1,0,7.5-3.4,7.5-7.5v-35.1h35.1c4.1,0,7.5-3.4,7.5-7.5s-3.4-7.5-7.5-7.5H37.8
			c-6.5,0-11.8,5.3-11.8,11.8v38.3C26,221.6,29.4,225,33.5,225z"/>
		<path class="st0" d="M406.7,167.4h-38.3c-4.1,0-7.5,3.4-7.5,7.5s3.4,7.5,7.5,7.5h35.1v35.1c0,4.1,3.4,7.5,7.5,7.5s7.5-3.4,7.5-7.5
			v-38.3C418.5,172.7,413.2,167.4,406.7,167.4L406.7,167.4z"/>
		<path class="st0" d="M411,357.9c-4.1,0-7.5,3.4-7.5,7.5v35.1h-35.1c-4.1,0-7.5,3.4-7.5,7.5s3.4,7.5,7.5,7.5h38.3
			c6.5,0,11.8-5.3,11.8-11.8v-38.3C418.5,361.2,415.1,357.9,411,357.9z"/>
		<path class="st0" d="M76.1,400.4H41v-35.1c0-4.1-3.4-7.5-7.5-7.5s-7.5,3.4-7.5,7.5v38.3c0,6.5,5.3,11.8,11.8,11.8h38.3
			c4.1,0,7.5-3.4,7.5-7.5S80.3,400.4,76.1,400.4L76.1,400.4z"/>
		<path class="st0" d="M257.9,166.8c-18.4,0-33.3,14.9-33.3,33.3c0,18.4,14.9,33.3,33.3,33.3c18.4,0,33.3-14.9,33.3-33.3
			C291.2,181.7,276.3,166.8,257.9,166.8z M257.9,218.4c-10.1,0-18.3-8.2-18.3-18.3c0-10.1,8.2-18.3,18.3-18.3
			c10.1,0,18.3,8.2,18.3,18.3C276.2,210.2,268,218.4,257.9,218.4z"/>
		<path class="st0" d="M440.1,39.5H326c-4.1,0-7.5,3.4-7.5,7.5s3.4,7.5,7.5,7.5h114.1c4.1,0,7.5-3.4,7.5-7.5S444.2,39.5,440.1,39.5z
			"/>
		<path class="st0" d="M440.1,66.9H326c-4.1,0-7.5,3.4-7.5,7.5s3.4,7.5,7.5,7.5h114.1c4.1,0,7.5-3.4,7.5-7.5S444.2,66.9,440.1,66.9z
			"/>
		<path class="st0" d="M440.1,94.4h-59.3c-4.1,0-7.5,3.4-7.5,7.5s3.4,7.5,7.5,7.5h59.3c4.1,0,7.5-3.4,7.5-7.5S444.2,94.4,440.1,94.4
			z"/>
		<path class="st0" d="M478.5,64.5c4.1,0,7.5-3.4,7.5-7.5V17.5C486,7.9,478.1,0,468.5,0H297.5C287.9,0,280,7.9,280,17.5v76.3H125.3
			c-12.4,0-22.5,10.1-22.5,22.5v202.9l-28.4,44.7c-2.1,3.2-2.2,7.3-0.3,10.7c1.8,3.4,5.4,5.4,9.2,5.4h19.5v109.5
			c0,12.4,10.1,22.5,22.5,22.5h193.9c12.4,0,22.5-10.1,22.5-22.5V380h19.5c3.8,0,7.4-2.1,9.2-5.4c1.8-3.4,1.7-7.5-0.3-10.7
			l-28.4-44.7V146.7h126.8c9.6,0,17.5-7.9,17.5-17.5V92.7c0-4.1-3.4-7.5-7.5-7.5s-7.5,3.4-7.5,7.5v36.5c0,1.4-1.1,2.5-2.5,2.5H341.7
			v-15.4c0-12.4-10.1-22.5-22.5-22.5H295V17.5c0-1.4,1.1-2.5,2.5-2.5h170.9c1.4,0,2.5,1.1,2.5,2.5V57
			C471,61.1,474.3,64.5,478.5,64.5z M326.7,436.6H302c-4.1,0-7.5,3.4-7.5,7.5s3.4,7.5,7.5,7.5h24.7v37.9c0,4.1-3.4,7.5-7.5,7.5
			H125.3c-4.1,0-7.5-3.4-7.5-7.5v-37.9h148.9c4.1,0,7.5-3.4,7.5-7.5s-3.4-7.5-7.5-7.5H117.8V380h101h72.3h35.6V436.6z M232.5,365
			l35.6-56.2l15.1,11c1.8,1.3,4,2,6.2,2c2.2,0,4.3-0.7,6.2-2l19.7-14.3L353,365L232.5,365z M307.2,292.8l-17.8,12.9l-13.3-9.6
			l16.6-26.1L307.2,292.8z M326.7,295.5l-25.1-39.6c-1.9-3.1-5.3-4.9-8.9-4.9c0,0,0,0,0,0c-3.6,0-6.9,1.8-8.9,4.9L255,301.5
			l-6.3-9.9c-2.2-3.5-6.9-4.5-10.4-2.3c-3.5,2.2-4.5,6.9-2.3,10.4l10,15.8L214.7,365H91.5l52.5-82.7l15.3,11.1c1.8,1.3,4,2,6.2,2
			c2.2,0,4.3-0.7,6.2-2l41.4-30.1l4.1,6.5c2.2,3.5,6.9,4.5,10.4,2.3c3.5-2.2,4.5-6.9,2.3-10.4l-36.4-57.4c-1.9-3.1-5.3-4.9-8.9-4.9
			c0,0,0,0,0,0c-3.6,0-6.9,1.8-8.9,4.9l-57.8,91.1V116.3c0-4.1,3.4-7.5,7.5-7.5H280v20.4c0,9.6,7.9,17.5,17.5,17.5h29.2V295.5z
			 M152,269.6l32.5-51.2l20.4,32.2l-39.5,28.7L152,269.6z M319.2,108.8c4.1,0,7.5,3.4,7.5,7.5v15.4h-29.2c-1.4,0-2.5-1.1-2.5-2.5
			v-20.4H319.2z"/>
	</g>
</g>
</svg>
